<svg width="96" height="96" viewBox="0 0 96 96" fill="none" xmlns="http://www.w3.org/2000/svg">
  <rect width="96" height="96" rx="22" fill="#26a69a"/>
  <g transform="translate(12 22) scale(0.5625)" stroke="#ffffff" fill="none">
    <circle cx="27" cy="25" r="12" stroke-width="5.5"/>
    <path d="M9 88 C9 60 14 44 27 44 C40 44 45 60 45 88" stroke-width="5.5" stroke-linecap="round"/>
    <path d="M30 58 Q40 64 48 60" stroke-width="5.5" stroke-linecap="round"/>
    <g transform="rotate(8 56 58)">
      <rect x="46" y="42" width="20" height="28" rx="4.5" stroke-width="4.5"/>
      <path d="M51.5 51 l2.5 2.5 4-4.5" stroke-width="2.8" stroke-linecap="round" stroke-linejoin="round"/>
      <path d="M51.5 60 l2.5 2.5 4-4.5" stroke-width="2.8" stroke-linecap="round" stroke-linejoin="round"/>
    </g>
    <g transform="rotate(-8 72 58)">
      <rect x="62" y="42" width="20" height="28" rx="4.5" stroke-width="4.5"/>
      <path d="M67.5 51 l2.5 2.5 4-4.5" stroke-width="2.8" stroke-linecap="round" stroke-linejoin="round"/>
      <path d="M67.5 60 l2.5 2.5 4-4.5" stroke-width="2.8" stroke-linecap="round" stroke-linejoin="round"/>
    </g>
    <path d="M98 58 Q88 64 80 60" stroke-width="5.5" stroke-linecap="round"/>
    <circle cx="101" cy="25" r="12" stroke-width="5.5"/>
    <path d="M83 88 C83 60 88 44 101 44 C114 44 119 60 119 88" stroke-width="5.5" stroke-linecap="round"/>
  </g>
</svg>
