<svg width="96" height="96" viewBox="0 0 96 96" fill="none" xmlns="http://www.w3.org/2000/svg">
  <defs>
    <linearGradient id="brand" x1="10" y1="8" x2="88" y2="90" gradientUnits="userSpaceOnUse">
      <stop stop-color="#16C7A0"/>
      <stop offset="0.52" stop-color="#159E91"/>
      <stop offset="1" stop-color="#2879D0"/>
    </linearGradient>
    <linearGradient id="shine" x1="24" y1="18" x2="70" y2="78" gradientUnits="userSpaceOnUse">
      <stop stop-color="white" stop-opacity="0.34"/>
      <stop offset="1" stop-color="white" stop-opacity="0"/>
    </linearGradient>
  </defs>
  <rect x="4" y="4" width="88" height="88" rx="28" fill="url(#brand)"/>
  <path d="M20 13.6C33.4 4.6 59.2 4.2 74.4 16.8L18.8 72.4C8.8 56.2 10.2 29 20 13.6Z" fill="url(#shine)"/>
  <path d="M28.4 29H67.6C71.6 29 75 32.4 75 36.4V56.4C75 60.4 71.6 63.8 67.6 63.8H50.2L38 72.8V63.8H28.4C24.4 63.8 21 60.4 21 56.4V36.4C21 32.4 24.4 29 28.4 29Z" stroke="white" stroke-width="4.7" stroke-linejoin="round"/>
  <path d="M35 39V53.6M35.4 46.8L45.4 39M35.4 46.8L45.4 53.6" stroke="white" stroke-width="4.8" stroke-linecap="round" stroke-linejoin="round"/>
  <path d="M61 39V53.6M60.6 46.8L50.6 39M60.6 46.8L50.6 53.6" stroke="white" stroke-opacity="0.78" stroke-width="4.8" stroke-linecap="round" stroke-linejoin="round"/>
  <circle cx="75" cy="21" r="6.4" fill="#B9F4E1" stroke="white" stroke-width="2.8"/>
</svg>
